<svg width="100" height="100" viewBox="0 0 100 100" fill="none" xmlns="http://www.w3.org/2000/svg">
<path d="M12.5 41.6666C12.5 55.4737 23.6929 66.6666 37.5 66.6666C45.5615 66.6666 52.7318 62.8509 57.3035 56.9271L87.2678 21.8204C88.9991 19.792 87.5577 16.6666 84.8909 16.6666H37.5C23.6929 16.6666 12.5 27.8595 12.5 41.6666Z" fill="#F4F4F5" fill-opacity="0.8"/>
<path d="M87.5 58.3333C87.5 44.5261 76.3071 33.3333 62.5 33.3333C54.4385 33.3333 47.2682 37.1489 42.6965 43.0727L12.7322 78.1795C11.0009 80.2079 12.4423 83.3333 15.1091 83.3333H62.5C76.3071 83.3333 87.5 72.1404 87.5 58.3333Z" fill="#F9FAFB" fill-opacity="0.7"/>
<path fill-rule="evenodd" clip-rule="evenodd" d="M74.722 36.5193C71.1083 34.4903 66.9393 33.3332 62.5 33.3332C54.4385 33.3332 47.2682 37.1489 42.6965 43.0727L25.278 63.4805C28.8917 65.5095 33.0607 66.6666 37.5 66.6666C45.5615 66.6666 52.7318 62.8509 57.3035 56.9271L74.722 36.5193Z" fill="#E4E4E7" fill-opacity="0.9"/>
</svg>
