<svg width="76" height="76" viewBox="0 0 76 76" fill="none" xmlns="http://www.w3.org/2000/svg">
<g clip-path="url(#clip0_1212_9)">
<path d="M0.521942 30C0.521942 43.8071 11.7148 55 25.5219 55C33.5835 55 40.7538 51.1843 45.3254 45.2605L75.2898 10.1538C77.0211 8.12536 75.5796 5 72.9128 5H25.5219C11.7148 5 0.521942 16.1929 0.521942 30Z" fill="#3F3F46"/>
<path d="M75.5219 46.6667C75.5219 32.8595 64.3291 21.6667 50.5219 21.6667C42.4604 21.6667 35.2901 25.4823 30.7185 31.4061L0.754108 66.5129C-0.977168 68.5413 0.464257 71.6667 3.13104 71.6667H50.5219C64.3291 71.6667 75.5219 60.4738 75.5219 46.6667Z" fill="#52525B"/>
<path fill-rule="evenodd" clip-rule="evenodd" d="M62.7439 24.8527C59.1303 22.8237 54.9612 21.6666 50.5219 21.6666C42.4604 21.6666 35.2901 25.4823 30.7185 31.4061L13.3 51.8139C16.9136 53.8429 21.0826 55 25.5219 55C33.5835 55 40.7538 51.1844 45.3254 45.2605L62.7439 24.8527Z" fill="#18181B"/>
</g>
<defs>
<clipPath id="clip0_1212_9">
<rect width="76" height="76" fill="white"/>
</clipPath>
</defs>
</svg>
